<mxfile host="app.diagrams.net" modified="2024-03-12T20:50:48.957Z" agent="Mozilla/5.0 (Windows NT 10.0; Win64; x64) AppleWebKit/537.36 (KHTML, like Gecko) Chrome/122.0.0.0 Safari/537.36" etag="ThMP1CpIgItfrI_Z6ipb" version="24.0.5" type="google">
  <diagram name="Page-1" id="xL8FFwVUbSdoYEy030hE">
    <mxGraphModel grid="1" page="1" gridSize="10" guides="1" tooltips="1" connect="1" arrows="1" fold="1" pageScale="1" pageWidth="850" pageHeight="1100" math="0" shadow="0">
      <root>
        <mxCell id="0" />
        <mxCell id="1" parent="0" />
        <mxCell id="LuDwo5kwdCnGpcgLLefa-24" value="" style="shape=ext;double=1;rounded=1;whiteSpace=wrap;html=1;rotation=90;" vertex="1" parent="1">
          <mxGeometry x="203" y="160.63" width="445" height="223.75" as="geometry" />
        </mxCell>
        <mxCell id="LuDwo5kwdCnGpcgLLefa-1" value="&lt;font style=&quot;font-size: 15px;&quot;&gt;Chat&lt;/font&gt;" style="text;strokeColor=none;align=center;fillColor=none;html=1;verticalAlign=middle;whiteSpace=wrap;rounded=0;" vertex="1" parent="1">
          <mxGeometry x="438.87" y="117.99999999999997" width="60" height="30" as="geometry" />
        </mxCell>
        <mxCell id="LuDwo5kwdCnGpcgLLefa-4" value="&lt;font style=&quot;font-size: 15px;&quot;&gt;Google Workspace&lt;/font&gt;" style="text;strokeColor=none;align=center;fillColor=none;html=1;verticalAlign=middle;whiteSpace=wrap;rounded=0;" vertex="1" parent="1">
          <mxGeometry x="144.23000000000002" y="340" width="110" height="30" as="geometry" />
        </mxCell>
        <mxCell id="LuDwo5kwdCnGpcgLLefa-6" value="" style="sketch=0;pointerEvents=1;shadow=0;dashed=0;html=1;strokeColor=none;fillColor=#505050;labelPosition=center;verticalLabelPosition=bottom;verticalAlign=top;outlineConnect=0;align=center;shape=mxgraph.office.communications.chat_room;" vertex="1" parent="1">
          <mxGeometry x="445.87" y="79" width="46" height="47" as="geometry" />
        </mxCell>
        <mxCell id="LuDwo5kwdCnGpcgLLefa-9" value="" style="shadow=0;dashed=0;html=1;strokeColor=none;fillColor=#4495D1;labelPosition=center;verticalLabelPosition=bottom;verticalAlign=top;align=center;outlineConnect=0;shape=mxgraph.veeam.2d.hard_drive;" vertex="1" parent="1">
          <mxGeometry x="347.45" y="252" width="40" height="48" as="geometry" />
        </mxCell>
        <mxCell id="LuDwo5kwdCnGpcgLLefa-10" value="&lt;font style=&quot;font-size: 15px;&quot;&gt;Drive&lt;/font&gt;" style="text;strokeColor=none;align=center;fillColor=none;html=1;verticalAlign=middle;whiteSpace=wrap;rounded=0;" vertex="1" parent="1">
          <mxGeometry x="320.37" y="310" width="95" height="30" as="geometry" />
        </mxCell>
        <mxCell id="LuDwo5kwdCnGpcgLLefa-12" value="" style="verticalLabelPosition=bottom;sketch=0;aspect=fixed;html=1;verticalAlign=top;strokeColor=none;align=center;outlineConnect=0;shape=mxgraph.citrix.document;" vertex="1" parent="1">
          <mxGeometry x="348.28" y="345" width="39.17" height="60" as="geometry" />
        </mxCell>
        <mxCell id="LuDwo5kwdCnGpcgLLefa-13" value="&lt;font style=&quot;font-size: 15px;&quot;&gt;Docs&lt;/font&gt;&lt;div style=&quot;font-size: 15px;&quot;&gt;&lt;font style=&quot;font-size: 15px;&quot;&gt;Sheets&lt;/font&gt;&lt;/div&gt;&lt;div style=&quot;font-size: 15px;&quot;&gt;&lt;span style=&quot;background-color: initial;&quot;&gt;Forms&lt;/span&gt;&lt;br&gt;&lt;/div&gt;" style="text;strokeColor=none;align=center;fillColor=none;html=1;verticalAlign=middle;whiteSpace=wrap;rounded=0;" vertex="1" parent="1">
          <mxGeometry x="337.87" y="429" width="60" height="30" as="geometry" />
        </mxCell>
        <mxCell id="LuDwo5kwdCnGpcgLLefa-20" value="" style="shape=image;html=1;verticalAlign=top;verticalLabelPosition=bottom;labelBackgroundColor=#ffffff;imageAspect=0;aspect=fixed;image=https://cdn4.iconfinder.com/data/icons/flatified/128/calendar.png" vertex="1" parent="1">
          <mxGeometry x="337.45" y="149" width="60" height="60" as="geometry" />
        </mxCell>
        <mxCell id="LuDwo5kwdCnGpcgLLefa-22" value="&lt;span style=&quot;font-size: 15px;&quot;&gt;Calendar&lt;/span&gt;" style="text;strokeColor=none;align=center;fillColor=none;html=1;verticalAlign=middle;whiteSpace=wrap;rounded=0;" vertex="1" parent="1">
          <mxGeometry x="337.45" y="210" width="60" height="30" as="geometry" />
        </mxCell>
        <mxCell id="LuDwo5kwdCnGpcgLLefa-26" value="" style="html=1;labelBackgroundColor=#ffffff;startArrow=none;startFill=0;startSize=6;endArrow=classic;endFill=1;endSize=6;jettySize=auto;orthogonalLoop=1;strokeWidth=1;dashed=1;fontSize=14;rounded=0;" edge="1" parent="1">
          <mxGeometry width="60" height="60" relative="1" as="geometry">
            <mxPoint x="260" y="275.5" as="sourcePoint" />
            <mxPoint x="310" y="275.5" as="targetPoint" />
          </mxGeometry>
        </mxCell>
        <mxCell id="cW5Y_PmVlvCHdv8XTMOO-2" value="" style="sketch=0;outlineConnect=0;fontColor=#232F3E;gradientColor=none;fillColor=#232F3D;strokeColor=none;dashed=0;verticalLabelPosition=bottom;verticalAlign=top;align=center;html=1;fontSize=12;fontStyle=0;aspect=fixed;pointerEvents=1;shape=mxgraph.aws4.email_2;" vertex="1" parent="1">
          <mxGeometry x="343.57" y="79" width="47.76" height="30" as="geometry" />
        </mxCell>
        <mxCell id="cW5Y_PmVlvCHdv8XTMOO-3" value="&lt;font style=&quot;font-size: 15px;&quot;&gt;Gmail&lt;/font&gt;" style="text;strokeColor=none;align=center;fillColor=none;html=1;verticalAlign=middle;whiteSpace=wrap;rounded=0;" vertex="1" parent="1">
          <mxGeometry x="337.45" y="118" width="60" height="30" as="geometry" />
        </mxCell>
        <mxCell id="cW5Y_PmVlvCHdv8XTMOO-5" value="" style="fontColor=#0066CC;verticalAlign=top;verticalLabelPosition=bottom;labelPosition=center;align=center;html=1;outlineConnect=0;fillColor=#CCCCCC;strokeColor=#6881B3;gradientColor=none;gradientDirection=north;strokeWidth=2;shape=mxgraph.networks.video_projector_screen;" vertex="1" parent="1">
          <mxGeometry x="433.87" y="340" width="70" height="70" as="geometry" />
        </mxCell>
        <mxCell id="cW5Y_PmVlvCHdv8XTMOO-6" value="&lt;font style=&quot;font-size: 15px;&quot;&gt;Slides&lt;/font&gt;&lt;div&gt;&lt;font style=&quot;font-size: 15px;&quot;&gt;Keep&lt;/font&gt;&lt;/div&gt;&lt;div&gt;&lt;font style=&quot;font-size: 15px;&quot;&gt;Sites&lt;/font&gt;&lt;/div&gt;" style="text;strokeColor=none;align=center;fillColor=none;html=1;verticalAlign=middle;whiteSpace=wrap;rounded=0;" vertex="1" parent="1">
          <mxGeometry x="438.87" y="429" width="60" height="30" as="geometry" />
        </mxCell>
        <mxCell id="cW5Y_PmVlvCHdv8XTMOO-7" value="" style="shape=image;html=1;verticalAlign=top;verticalLabelPosition=bottom;labelBackgroundColor=#ffffff;imageAspect=0;aspect=fixed;image=https://cdn3.iconfinder.com/data/icons/social-media-chat-1/512/FaceTime-128.png" vertex="1" parent="1">
          <mxGeometry x="438.87" y="149" width="62" height="62" as="geometry" />
        </mxCell>
        <mxCell id="cW5Y_PmVlvCHdv8XTMOO-8" value="&lt;font style=&quot;font-size: 15px;&quot;&gt;Meet&lt;/font&gt;" style="text;strokeColor=none;align=center;fillColor=none;html=1;verticalAlign=middle;whiteSpace=wrap;rounded=0;" vertex="1" parent="1">
          <mxGeometry x="438.87" y="210" width="60" height="30" as="geometry" />
        </mxCell>
        <mxCell id="cW5Y_PmVlvCHdv8XTMOO-11" value="" style="image;aspect=fixed;html=1;points=[];align=center;fontSize=12;image=img/lib/azure2/app_services/App_Service_Environments.svg;" vertex="1" parent="1">
          <mxGeometry x="440.87" y="247" width="58" height="58" as="geometry" />
        </mxCell>
        <mxCell id="cW5Y_PmVlvCHdv8XTMOO-12" value="&lt;font style=&quot;font-size: 15px;&quot;&gt;AppSheet&lt;/font&gt;" style="text;strokeColor=none;align=center;fillColor=none;html=1;verticalAlign=middle;whiteSpace=wrap;rounded=0;" vertex="1" parent="1">
          <mxGeometry x="438.87" y="310" width="60" height="30" as="geometry" />
        </mxCell>
        <mxCell id="h6LAUjVl5mL9zkRUwQNY-2" value="" style="image;aspect=fixed;perimeter=ellipsePerimeter;html=1;align=center;shadow=0;dashed=0;spacingTop=3;image=img/lib/active_directory/workspace_site.svg;" vertex="1" parent="1">
          <mxGeometry x="150" y="235.15" width="104.23" height="101.1" as="geometry" />
        </mxCell>
      </root>
    </mxGraphModel>
  </diagram>
</mxfile>
